{"title":"Fair Game.2010.DvDScr.x264.Feel-Free","uid":6133754,"size":1115303166,"categoryP":"video","categoryS":"movies","magnet":"?xt=urn:btih:2193baed142e2fa1ee0c30a4fa0fa0f209162d9c&amp;dn=Fair+Game.2010.DvDScr.x264.Feel-Free&amp;tr=udp%3A%2F%2Ftracker.openbittorrent.com%3A80&amp;tr=udp%3A%2F%2Fopen.demonii.com%3A1337&amp;tr=udp%3A%2F%2Ftracker.coppersurfer.tk%3A6969&amp;tr=udp%3A%2F%2Fexodus.desync.com%3A6969","seeders":0,"leechers":0,"uploader":"neon","files":-1,"time":1296223109,"description":"Genre:Action | Biography | Drama\nLanguage:English\n &lt;a href=&quot; http://www.imdb.com/title/tt0977855/&quot; rel=&quot;nofollow&quot; target=&quot;_NEW&quot;&gt; http://www.imdb.com/title/tt0977855/&lt;/a&gt;\nSource:DVDScr.T0XiC-iNK Thx.\n\n\nFormat : MPEG-4\nFormat profile : Base Media\nCodec ID : isom\nFile size : 1.04 GiB\nDuration : 1h 47mn\nOverall bit rate : 1 384 Kbps\nMovie name : Fair.Game.2010.DvDScr.x264.Feel-Free\n\n\nVideo\nFormat settings, CABAC : Yes\nFormat settings, ReFrames : 4 frames\nCodec ID : avc1\nCodec ID/Info : Advanced Video Coding\nDuration : 1h 47mn\nBit rate mode : Variable\nBit rate : 1 000 Kbps\nWidth : 720 pixels\nHeight : 304 pixels\nDisplay aspect ratio : 2.35:1\nFrame rate mode : Constant\nFrame rate : 23.976 fps\nColor space : YUV\nChroma subsampling : 4:2:0\nBit depth : 8 bits\nScan type : Progressive\nBits/(Pixel*Frame) : 0.191\nStream size : 763 MiB (72%)\nWriting library : x264\n\nAudio\nID : 2\nFormat : AAC\nFormat/Info : Advanced Audio Codec\nFormat version : Version 4\nFormat profile : LC\nCodec ID : 40\nDuration : 1h 47mn\nBit rate mode : Variable\nBit rate : 384 Kbps\nChannel(s) : 6 channels\nChannel positions : Front: L C R, Side: L R, LFE\nSampling rate : 48.0 KHz\nStream size : 295 MiB (28%)\n\n\nPlot:\nPlame's status as a CIA agent was revealed by White House officials allegedly out to discredit her husband\n","torrent":{"xt":"urn:btih:2193baed142e2fa1ee0c30a4fa0fa0f209162d9c","amp;dn":"Fair+Game.2010.DvDScr.x264.Feel-Free","amp;tr":["udp%3A%2F%2Ftracker.openbittorrent.com%3A80","udp%3A%2F%2Fopen.demonii.com%3A1337","udp%3A%2F%2Ftracker.coppersurfer.tk%3A6969","udp%3A%2F%2Fexodus.desync.com%3A6969"],"infoHash":"2193baed142e2fa1ee0c30a4fa0fa0f209162d9c","infoHashBuffer":{"type":"Buffer","data":[33,147,186,237,20,46,47,161,238,12,48,164,250,15,160,242,9,22,45,156]},"announce":[],"urlList":[]}}